<?xml version="1.0" encoding="utf-8"?>
<!-- Generator: Adobe Illustrator 15.0.0, SVG Export Plug-In  -->
<!DOCTYPE svg PUBLIC "-//W3C//DTD SVG 1.1//EN" "http://www.w3.org/Graphics/SVG/1.1/DTD/svg11.dtd" [
	<!ENTITY ns_flows "http://ns.adobe.com/Flows/1.0/">
]>
<svg version="1.1"
	 xmlns="http://www.w3.org/2000/svg" xmlns:xlink="http://www.w3.org/1999/xlink" xmlns:a="http://ns.adobe.com/AdobeSVGViewerExtensions/3.0/"
	 x="0px" y="0px" width="200px" height="200px" viewBox="0 0 200 200" enable-background="new 0 0 200 200" xml:space="preserve">
<defs>
</defs>
<line id="_275022304_1_" fill="none" stroke="#4BAAD2" stroke-width="16.9997" x1="57.7" y1="77.4" x2="57.7" y2="138"/>
<path id="_275022376_1_" fill="none" stroke="#4BAAD2" stroke-width="16.9997" d="M36,53.5c10.8,0,21.7,8.1,21.7,24.4"/>
<line id="_461934896_1_" fill="none" stroke="#4BAAD2" stroke-width="16.9997" x1="100.5" y1="77.4" x2="100.5" y2="138"/>
<path id="_273792512_1_" fill="none" stroke="#4BAAD2" stroke-width="16.9997" d="M57.7,77.3c0-32,42.9-31.7,42.9,0.6"/>
<line id="_273880672_1_" fill="none" stroke="#4BAAD2" stroke-width="16.9997" x1="143.4" y1="77.4" x2="143.4" y2="138"/>
<path id="_272904616_1_" fill="none" stroke="#4BAAD2" stroke-width="16.9997" d="M100.5,77.3c0-32,42.9-31.7,42.9,0.6"/>
<path id="_461934920_1_" fill="none" stroke="#4BAAD2" stroke-width="16.9997" d="M143.5,137.5c0,16.1,10.9,24,21.6,23.8"/>
<path id="_275021416_1_" fill="none" stroke="#4BAAD2" stroke-width="16.9997" d="M143.6,141.6c8.1-117.6,103.2-35.1-36,12.7"/>
<ellipse fill="none" stroke="#4BAAD2" stroke-width="4.9997" cx="100" cy="100" rx="97.5" ry="97.5"/>
</svg>
