<?xml version="1.0" encoding="utf-8"?>
<!-- Generator: Adobe Illustrator 15.0.0, SVG Export Plug-In  -->
<!DOCTYPE svg PUBLIC "-//W3C//DTD SVG 1.1//EN" "http://www.w3.org/Graphics/SVG/1.1/DTD/svg11.dtd" [
	<!ENTITY ns_flows "http://ns.adobe.com/Flows/1.0/">
]>
<svg version="1.1"
	 xmlns="http://www.w3.org/2000/svg" xmlns:xlink="http://www.w3.org/1999/xlink" xmlns:a="http://ns.adobe.com/AdobeSVGViewerExtensions/3.0/"
	 x="0px" y="0px" width="200px" height="200px" viewBox="-0.1 0 200 200" enable-background="new -0.1 0 200 200"
	 xml:space="preserve">
<defs>
</defs>
<line id="_274859648_1_" fill="none" stroke="#4BAAD2" stroke-width="16.9997" x1="58.7" y1="78.4" x2="58.7" y2="137.9"/>
<path id="_274859672_1_" fill="none" stroke="#4BAAD2" stroke-width="16.9997" d="M37.4,55c10.6,0,21.3,8,21.3,24"/>
<line id="_272904496_1_" fill="none" stroke="#4BAAD2" stroke-width="16.9997" x1="100.8" y1="78.4" x2="100.8" y2="137.9"/>
<path id="_275024688_1_" fill="none" stroke="#4BAAD2" stroke-width="16.9997" d="M58.7,78.3c0-31.4,42.1-31.1,42.1,0.6"/>
<line id="_275023464_1_" fill="none" stroke="#4BAAD2" stroke-width="16.9997" x1="142.8" y1="78.4" x2="142.8" y2="137.9"/>
<path id="_461934848_1_" fill="none" stroke="#4BAAD2" stroke-width="16.9997" d="M100.8,78.3c0-31.4,42.1-31.1,42.1,0.6"/>
<path id="_461017960_1_" fill="none" stroke="#4BAAD2" stroke-width="16.9997" d="M142.9,137.3c0,15.8,10.6,23.6,21.2,23.4"/>
<line id="_275023560_1_" fill="none" stroke="#4BAAD2" stroke-width="16.9997" x1="163" y1="160.5" x2="192.8" y2="160.5"/>
<line id="_275024640_1_" fill="none" stroke="#4BAAD2" stroke-width="16.9997" x1="195.1" y1="154.9" x2="172.5" y2="180.2"/>
<line id="_275024544_1_" fill="none" stroke="#4BAAD2" stroke-width="16.9997" x1="195.1" y1="165.4" x2="172.5" y2="140"/>
<ellipse fill="none" stroke="#4BAAD2" stroke-width="4.9997" cx="100" cy="100" rx="97.5" ry="97.5"/>
</svg>
