<?xml version="1.0" encoding="utf-8"?>
<!-- Generator: Adobe Illustrator 15.0.0, SVG Export Plug-In  -->
<!DOCTYPE svg PUBLIC "-//W3C//DTD SVG 1.1//EN" "http://www.w3.org/Graphics/SVG/1.1/DTD/svg11.dtd" [
	<!ENTITY ns_flows "http://ns.adobe.com/Flows/1.0/">
]>
<svg version="1.1"
	 xmlns="http://www.w3.org/2000/svg" xmlns:xlink="http://www.w3.org/1999/xlink" xmlns:a="http://ns.adobe.com/AdobeSVGViewerExtensions/3.0/"
	 x="0px" y="0px" width="120px" height="120px" viewBox="-0.4 -19.4 120 120" enable-background="new -0.4 -19.4 120 120"
	 xml:space="preserve">
<defs>
</defs>
<path id="_258956960_1_" fill="#4BAAD2" stroke="#4BAAD2" stroke-width="1.0004" d="M92.2,27.8c-0.8-1.5-1.8-2.8-2.9-4.1l0,0
	c-1-1.1-2.2-2.2-3.4-3c0.3-0.3,0.6-0.7,0.9-1.1c2.7,1.9,4.9,4.4,6.6,7.3C92.9,27.2,92.5,27.5,92.2,27.8z"/>
<ellipse id="_259614648_1_" fill="none" stroke="#4BAAD2" stroke-width="3" cx="75.1" cy="12.1" rx="9.2" ry="10.6"/>
<path id="_259616568_1_" fill="#4BAAD2" stroke="#4BAAD2" stroke-width="1.0004" d="M32,20.8c-1.2,0.9-2.3,1.9-3.3,3l0,0
	c-0.7,0.8-1.4,1.6-2,2.5c-0.3-0.3-0.7-0.6-1.2-0.8l0.1-0.2h0c1.5-2.1,3.2-4,5.3-5.5C31.2,20.1,31.6,20.5,32,20.8z"/>
<ellipse id="_259616976_1_" fill="none" stroke="#4BAAD2" stroke-width="3" cx="42.6" cy="12.1" rx="9.2" ry="10.6"/>
<path id="_259613064_1_" fill="#4BAAD2" stroke="#4BAAD2" stroke-width="1.0004" d="M36.1,48.4c-0.4-0.5-0.8-0.9-1.2-1.4l0,0
	c-1.1-1.3-2.4-2.4-3.9-3.3c0.3-0.3,0.6-0.7,0.9-1.1c2,1.3,3.7,3,5.2,4.9C36.8,47.7,36.4,48,36.1,48.4z M10,44.2
	C8.9,45,7.9,45.9,6.9,47l0,0c-2.1,2.3-3.7,5.2-4.7,8.2H0.7C2.2,50.3,5.1,46,9.2,43C9.4,43.4,9.7,43.8,10,44.2z"/>
<ellipse id="_259619904_1_" fill="none" stroke="#4BAAD2" stroke-width="3" cx="20.8" cy="35.5" rx="9.2" ry="10.6"/>
<path id="_259616640_1_" fill="#4BAAD2" d="M14.3,72.4c0.4,0,0.8,0.1,1.1,0.3c0.3,0.2,0.6,0.5,0.8,0.9c0.2,0.4,0.3,0.8,0.3,1.4
	c0,0.5-0.1,1-0.3,1.4c-0.2,0.4-0.5,0.8-1,1c-0.4,0.2-0.9,0.4-1.5,0.4c-1,0-1.7-0.3-2.2-1c-0.5-0.7-0.7-1.6-0.7-2.7
	c0-0.9,0.1-1.6,0.4-2.3c0.3-0.6,0.7-1.2,1.2-1.5c0.5-0.4,1.1-0.5,1.8-0.5c0.7,0,1.2,0.2,1.7,0.5l-0.7,1.1c-0.3-0.2-0.7-0.3-1-0.3
	c-0.4,0-0.8,0.2-1,0.5c-0.3,0.4-0.4,0.9-0.5,1.5C13.1,72.6,13.7,72.4,14.3,72.4L14.3,72.4z M13.7,76.5c0.3,0,0.6-0.1,0.7-0.4
	c0.2-0.3,0.2-0.6,0.2-1.1c0-0.5-0.1-0.8-0.2-1c-0.1-0.2-0.4-0.3-0.7-0.3c-0.4,0-0.8,0.2-1.1,0.6c0,0.8,0.1,1.4,0.3,1.7
	C13.1,76.3,13.4,76.5,13.7,76.5z"/>
<polygon id="_2596166401_1_" fill="#4BAAD2" points="19.1,77.7 17.4,77.2 20,71.2 16.9,71.2 16.9,69.9 21.9,69.9 21.9,71.1 "/>
<path id="_25961664012_1_" fill="#4BAAD2" d="M24.9,78l-1.1-0.7l5.2-7.9l1.1,0.7L24.9,78z M24.4,69.7c0.4,0,0.7,0.1,1,0.3
	c0.3,0.2,0.5,0.4,0.7,0.7c0.2,0.3,0.3,0.7,0.3,1.1c0,0.4-0.1,0.8-0.3,1.1c-0.2,0.3-0.4,0.5-0.7,0.7c-0.3,0.2-0.6,0.2-1,0.2
	s-0.7-0.1-1-0.3c-0.3-0.2-0.5-0.4-0.7-0.7c-0.2-0.3-0.3-0.7-0.3-1.1c0-0.4,0.1-0.8,0.3-1.1c0.2-0.3,0.4-0.5,0.7-0.7
	C23.7,69.8,24,69.7,24.4,69.7z M24.4,70.8c-0.5,0-0.7,0.3-0.7,1c0,0.3,0.1,0.5,0.2,0.7c0.1,0.2,0.3,0.3,0.6,0.3c0.5,0,0.7-0.3,0.7-1
	S24.9,70.8,24.4,70.8z M29.4,73.7c0.4,0,0.7,0.1,1,0.3c0.3,0.2,0.5,0.4,0.7,0.7c0.2,0.3,0.3,0.7,0.3,1.1c0,0.4-0.1,0.8-0.3,1.1
	c-0.2,0.3-0.4,0.5-0.7,0.7c-0.3,0.2-0.6,0.2-1,0.2c-0.4,0-0.7-0.1-1-0.2c-0.3-0.2-0.6-0.4-0.7-0.7c-0.2-0.3-0.3-0.7-0.3-1.1
	c0-0.4,0.1-0.8,0.3-1.1c0.2-0.3,0.4-0.5,0.7-0.7C28.7,73.8,29.1,73.7,29.4,73.7z M29.4,74.8c-0.5,0-0.7,0.3-0.7,0.9
	c0,0.3,0.1,0.5,0.2,0.7c0.1,0.2,0.3,0.3,0.6,0.3c0.5,0,0.7-0.3,0.7-1C30.2,75.1,29.9,74.8,29.4,74.8z"/>
<path id="_258954944_1_" fill="#4BAAD2" stroke="#4BAAD2" stroke-width="1.0004" d="M116.9,55.2c-1-3-2.6-5.8-4.7-8.2l0,0
	c-1.1-1.2-2.2-2.2-3.5-3.1c0.4-0.4,0.5-0.8,1-1c4.2,3,7.2,7.4,8.7,12.3H116.9L116.9,55.2z M87.5,44.1c-1.2,0.9-2.3,1.9-3.3,3l0,0
	c-0.6,0.6-1.1,1.3-1.6,2c-0.3-0.4-0.6-0.8-1-1.1c1.4-1.9,3.1-3.6,5-5C86.8,43.4,87.1,43.7,87.5,44.1z"/>
<ellipse id="_259616664_1_" fill="none" stroke="#4BAAD2" stroke-width="3" cx="98.1" cy="35.4" rx="9.2" ry="10.6"/>
<path id="_259620456_1_" fill="#4BAAD2" d="M91.3,72.6c0.4,0,0.8,0.1,1.1,0.3c0.3,0.2,0.6,0.5,0.8,0.9c0.2,0.4,0.3,0.8,0.3,1.4
	c0,0.5-0.1,1-0.3,1.4c-0.2,0.4-0.5,0.8-1,1c-0.4,0.2-0.9,0.4-1.5,0.4c-1,0-1.7-0.3-2.2-1c-0.5-0.7-0.7-1.6-0.7-2.7
	c0-0.9,0.1-1.6,0.4-2.3c0.3-0.6,0.7-1.2,1.2-1.5c0.5-0.4,1.1-0.5,1.8-0.5c0.7,0,1.2,0.2,1.7,0.5l-0.7,1.1c-0.3-0.2-0.7-0.3-1-0.3
	c-0.4,0-0.8,0.2-1,0.5c-0.3,0.4-0.4,0.9-0.5,1.5C90.2,72.9,90.7,72.6,91.3,72.6L91.3,72.6z M90.8,76.7c0.3,0,0.6-0.1,0.7-0.4
	c0.2-0.3,0.2-0.6,0.2-1.1c0-0.5-0.1-0.8-0.2-1c-0.1-0.2-0.4-0.3-0.7-0.3c-0.4,0-0.8,0.2-1.1,0.6c0,0.8,0.1,1.4,0.3,1.7
	S90.4,76.7,90.8,76.7z"/>
<polygon id="_2596204561_1_" fill="#4BAAD2" points="96.4,77.8 96.4,71.9 94.7,72.9 94,71.7 96.5,70.1 98.1,70.1 98.1,77.8 "/>
<path id="_25962045612_1_" fill="#4BAAD2" d="M101.9,78.2l-1.1-0.7l5.2-7.9l1.1,0.7L101.9,78.2z M101.4,70c0.4,0,0.7,0.1,1,0.2
	c0.3,0.2,0.5,0.4,0.7,0.7c0.2,0.3,0.3,0.7,0.3,1.1c0,0.4-0.1,0.8-0.3,1.1c-0.2,0.3-0.4,0.5-0.7,0.7s-0.6,0.2-1,0.2
	c-0.4,0-0.7-0.1-1-0.3c-0.3-0.2-0.5-0.4-0.7-0.7c-0.2-0.3-0.3-0.7-0.3-1.1c0-0.4,0.1-0.8,0.3-1.1c0.2-0.3,0.4-0.5,0.7-0.7
	C100.7,70,101,70,101.4,70z M101.4,71c-0.5,0-0.7,0.3-0.7,1c0,0.3,0.1,0.5,0.2,0.7c0.1,0.2,0.3,0.3,0.6,0.3c0.5,0,0.7-0.3,0.7-1
	S101.9,71,101.4,71z M106.4,73.9c0.4,0,0.7,0.1,1,0.2c0.3,0.2,0.5,0.4,0.7,0.7c0.2,0.3,0.3,0.7,0.3,1.1c0,0.4-0.1,0.8-0.3,1.1
	c-0.2,0.3-0.4,0.5-0.7,0.7c-0.3,0.2-0.6,0.2-1,0.2s-0.7-0.1-1-0.2c-0.3-0.2-0.6-0.4-0.7-0.7c-0.2-0.3-0.3-0.7-0.3-1.1
	c0-0.4,0.1-0.8,0.3-1.1c0.2-0.3,0.4-0.5,0.7-0.7C105.7,74,106,73.9,106.4,73.9z M106.4,75c-0.5,0-0.7,0.3-0.7,1
	c0,0.3,0.1,0.5,0.2,0.7c0.1,0.2,0.3,0.3,0.6,0.3c0.5,0,0.7-0.3,0.7-1C107.1,75.3,106.9,75,106.4,75z"/>
<path id="_259614888_1_" fill="#FC468F" stroke="#FC468F" stroke-width="1.0004" d="M83.3,55c-1.3-3.9-3.4-7.6-6.1-10.6l0,0
	c-1.2-1.3-2.5-2.5-3.9-3.6v0c-0.4-0.3-0.9-0.6-1.3-0.9c0.3-0.4,0.6-0.9,0.8-1.5l0.1-0.1c3.3,2.1,6,4.8,8.2,8l0,0
	c1.8,2.7,3.2,5.6,4.2,8.7H83.3L83.3,55z M46.1,39.9c-0.5,0.3-0.9,0.6-1.4,0.9v0c-1.4,1-2.7,2.2-3.9,3.6l0,0c-2.8,3-4.8,6.7-6.1,10.6
	h-1.9c0.9-3.1,2.3-6,4.2-8.7l0,0c2.1-3.1,4.8-5.8,8-7.9C45.2,39,45.6,39.5,46.1,39.9L46.1,39.9z"/>
<ellipse id="_259619688_1_" fill="none" stroke="#FC468F" stroke-width="3" cx="58.8" cy="29.4" rx="11.9" ry="13.8"/>
<polygon id="_259614960_1_" fill="#FC468F" points="49.7,79.4 47.9,78.8 50.8,71.9 47.3,71.9 47.3,70.3 53,70.3 53,71.7 "/>
<path id="_2596149601_1_" fill="#FC468F" d="M56,71.8v1.9c0.4-0.2,0.8-0.3,1.3-0.3c0.5,0,0.9,0.1,1.3,0.3c0.4,0.2,0.7,0.6,0.9,1
	c0.2,0.4,0.3,1,0.3,1.5c0,0.6-0.1,1.2-0.4,1.6c-0.3,0.5-0.7,0.8-1.2,1.1c-0.5,0.3-1.1,0.4-1.8,0.4c-1.2,0-2.2-0.4-3-1.3l1.2-1.1
	c0.5,0.6,1,0.9,1.7,0.9c0.5,0,0.8-0.1,1.1-0.4c0.3-0.3,0.4-0.7,0.4-1.2c0-1-0.4-1.5-1.2-1.5c-0.2,0-0.3,0-0.5,0.1
	c-0.2,0-0.3,0.1-0.6,0.2H54v-4.8h5.4l-0.2,1.5H56L56,71.8z"/>
<path id="_25961496012_1_" fill="#FC468F" d="M63.5,79.7l-1.3-0.8l6.1-9.2l1.3,0.8L63.5,79.7z M63,70.1c0.4,0,0.8,0.1,1.2,0.3
	s0.6,0.5,0.8,0.8s0.3,0.8,0.3,1.2c0,0.5-0.1,0.9-0.3,1.2c-0.2,0.4-0.5,0.6-0.8,0.8c-0.4,0.2-0.8,0.3-1.2,0.3c-0.4,0-0.8-0.1-1.2-0.3
	c-0.4-0.2-0.6-0.5-0.8-0.8c-0.2-0.4-0.3-0.8-0.3-1.2c0-0.5,0.1-0.9,0.3-1.2c0.2-0.4,0.5-0.6,0.8-0.8C62.1,70.2,62.5,70.1,63,70.1z
	 M63,71.4c-0.6,0-0.9,0.4-0.9,1.1c0,0.3,0.1,0.6,0.2,0.8c0.1,0.2,0.3,0.3,0.7,0.3c0.6,0,0.8-0.4,0.8-1.1
	C63.8,71.7,63.5,71.4,63,71.4z M68.8,74.7c0.4,0,0.8,0.1,1.2,0.3c0.4,0.2,0.6,0.5,0.8,0.8c0.2,0.4,0.3,0.8,0.3,1.2s-0.1,0.9-0.3,1.2
	c-0.2,0.4-0.5,0.6-0.8,0.8c-0.4,0.2-0.8,0.3-1.2,0.3s-0.8-0.1-1.2-0.3s-0.6-0.5-0.8-0.8c-0.2-0.4-0.3-0.8-0.3-1.2s0.1-0.9,0.3-1.2
	c0.2-0.4,0.5-0.6,0.8-0.8C68,74.8,68.4,74.7,68.8,74.7z M68.8,75.9c-0.6,0-0.9,0.4-0.9,1.1c0,0.3,0.1,0.6,0.2,0.8
	c0.1,0.2,0.3,0.3,0.7,0.3c0.6,0,0.8-0.4,0.8-1.1C69.7,76.3,69.4,75.9,68.8,75.9z"/>
</svg>
