<?xml version="1.0" encoding="utf-8"?>
<!-- Generator: Adobe Illustrator 15.0.0, SVG Export Plug-In  -->
<!DOCTYPE svg PUBLIC "-//W3C//DTD SVG 1.1//EN" "http://www.w3.org/Graphics/SVG/1.1/DTD/svg11.dtd" [
	<!ENTITY ns_flows "http://ns.adobe.com/Flows/1.0/">
]>
<svg version="1.1"
	 xmlns="http://www.w3.org/2000/svg" xmlns:xlink="http://www.w3.org/1999/xlink" xmlns:a="http://ns.adobe.com/AdobeSVGViewerExtensions/3.0/"
	 x="0px" y="0px" width="120px" height="120px" viewBox="-9.1 -9.1 120 120" enable-background="new -9.1 -9.1 120 120"
	 xml:space="preserve">
<defs>
</defs>
<circle id="_230014984_1_" fill="none" stroke="#4BAAD2" stroke-width="1.0004" cx="50.9" cy="50.9" r="42.3"/>
<line id="_230014864_1_" fill="none" stroke="#4BAAD2" stroke-width="1.0004" x1="0" y1="50.9" x2="101.8" y2="50.9"/>
<line id="_230014792_1_" fill="none" stroke="#4BAAD2" stroke-width="1.0004" x1="50.9" y1="101.8" x2="50.9" y2="0"/>
<line id="_230014624_1_" fill="none" stroke="#4BAAD2" stroke-width="1.0004" x1="6.8" y1="76.4" x2="95" y2="25.5"/>
<line id="_230014552_1_" fill="none" stroke="#4BAAD2" stroke-width="1.0004" x1="76.4" y1="95" x2="25.5" y2="6.8"/>
<line id="_230014384_1_" fill="none" stroke="#4BAAD2" stroke-width="1.0004" x1="25.5" y1="95" x2="76.4" y2="6.8"/>
<line id="_230014360_1_" fill="none" stroke="#4BAAD2" stroke-width="1.0004" x1="95" y1="76.4" x2="6.8" y2="25.5"/>
<path id="_230014120_1_" fill="none" stroke="#FC468F" stroke-width="1.0004" d="M51.1,15.5c5.5,14.2,15.8,20.2,30.8,17.8"/>
<path id="_230014024_1_" fill="none" stroke="#FC468F" stroke-width="1.0004" d="M51.1,15.5c4.1,21.4,14.3,39.2,30.8,53.4"/>
<line id="_230013928_1_" fill="none" stroke="#FC468F" stroke-width="1.0004" x1="51" y1="15.5" x2="51" y2="86.6"/>
<path id="_230013808_1_" fill="none" stroke="#FC468F" stroke-width="1.0004" d="M51,15.3C47,36.7,36.7,54.5,20.2,68.7"/>
<path id="_230013736_1_" fill="none" stroke="#FC468F" stroke-width="1.0004" d="M50.9,15.7c-5.5,14.2-15.8,20.2-30.8,17.8"/>
<path id="_230013592_1_" fill="none" stroke="#FC468F" stroke-width="1.0004" d="M33.1,20c11.9,9.6,23.7,9.6,35.6,0"/>
<path id="_230013496_1_" fill="none" stroke="#FC468F" stroke-width="1.0004" d="M33.1,20c14.2,16.5,32,26.8,53.4,30.8"/>
<line id="_230013400_1_" fill="none" stroke="#FC468F" stroke-width="1.0004" x1="33.1" y1="20" x2="68.7" y2="81.7"/>
<path id="_230013280_1_" fill="none" stroke="#FC468F" stroke-width="1.0004" d="M33,19.9c7.2,20.6,7.2,41.1,0,61.7"/>
<path id="_230013208_1_" fill="none" stroke="#FC468F" stroke-width="1.0004" d="M33.1,20.3c2.4,15.1-3.6,25.3-17.8,30.8"/>
<path id="_233440432_1_" fill="none" stroke="#FC468F" stroke-width="1.0004" d="M20.2,33c15.1,2.4,25.3-3.6,30.8-17.8"/>
<path id="_233440336_1_" fill="none" stroke="#FC468F" stroke-width="1.0004" d="M20.2,33c20.6,7.2,41.1,7.2,61.7,0"/>
<line id="_233440240_1_" fill="none" stroke="#FC468F" stroke-width="1.0004" x1="20.1" y1="33.1" x2="81.8" y2="68.7"/>
<path id="_233440120_1_" fill="none" stroke="#FC468F" stroke-width="1.0004" d="M20,33c16.5,14.2,26.8,32,30.8,53.4"/>
<path id="_233440048_1_" fill="none" stroke="#FC468F" stroke-width="1.0004" d="M20.3,33.3c9.6,11.9,9.6,23.7,0,35.6"/>
<path id="_233439904_1_" fill="none" stroke="#FC468F" stroke-width="1.0004" d="M15.3,50.9c14.2-5.5,20.2-15.8,17.8-30.8"/>
<path id="_233439808_1_" fill="none" stroke="#FC468F" stroke-width="1.0004" d="M15.3,50.9c21.4-4.1,39.2-14.3,53.4-30.8"/>
<line id="_233439712_1_" fill="none" stroke="#FC468F" stroke-width="1.0004" x1="15.3" y1="51" x2="86.5" y2="51"/>
<path id="_233439592_1_" fill="none" stroke="#FC468F" stroke-width="1.0004" d="M15.1,51c21.4,4,39.2,14.3,53.4,30.8"/>
<path id="_233439520_1_" fill="none" stroke="#FC468F" stroke-width="1.0004" d="M15.5,51.1c14.2,5.5,20.2,15.8,17.8,30.8"/>
<path id="_233439376_1_" fill="none" stroke="#FC468F" stroke-width="1.0004" d="M20,68.7c9.6-11.9,9.6-23.7,0-35.6"/>
<path id="_233439280_1_" fill="none" stroke="#FC468F" stroke-width="1.0004" d="M20,68.7c16.5-14.2,26.8-32,30.8-53.4"/>
<line id="_233439184_1_" fill="none" stroke="#FC468F" stroke-width="1.0004" x1="20" y1="68.7" x2="81.7" y2="33.1"/>
<path id="_233439064_1_" fill="none" stroke="#FC468F" stroke-width="1.0004" d="M19.9,68.8c20.6-7.2,41.1-7.2,61.7,0"/>
<path id="_233438992_1_" fill="none" stroke="#FC468F" stroke-width="1.0004" d="M20.3,68.7c15.1-2.4,25.3,3.6,30.8,17.8"/>
<path id="_233438848_1_" fill="none" stroke="#FC468F" stroke-width="1.0004" d="M33,81.7c2.4-15.1-3.6-25.3-17.8-30.8"/>
<path id="_233438752_1_" fill="none" stroke="#FC468F" stroke-width="1.0004" d="M33,81.7c7.2-20.6,7.2-41.1,0-61.7"/>
<line id="_233438656_1_" fill="none" stroke="#FC468F" stroke-width="1.0004" x1="33.1" y1="81.7" x2="68.7" y2="20.1"/>
<path id="_233438560_1_" fill="none" stroke="#FC468F" stroke-width="1.0004" d="M33,81.8C47.2,65.3,65,55.1,86.4,51"/>
<path id="_233438440_1_" fill="none" stroke="#FC468F" stroke-width="1.0004" d="M33.3,81.6C45.1,72,57,72,68.9,81.6"/>
<path id="_233376408_1_" fill="none" stroke="#FC468F" stroke-width="1.0004" d="M50.7,86.4C45.3,72.1,35,66.2,19.9,68.6"/>
<path id="_233376312_1_" fill="none" stroke="#FC468F" stroke-width="1.0004" d="M50.7,86.4C46.7,65,36.4,47.2,19.9,33"/>
<line id="_233376216_1_" fill="none" stroke="#FC468F" stroke-width="1.0004" x1="50.8" y1="86.4" x2="50.8" y2="15.2"/>
<path id="_233376096_1_" fill="none" stroke="#FC468F" stroke-width="1.0004" d="M50.8,86.5c4-21.4,14.3-39.2,30.8-53.4"/>
<path id="_233376024_1_" fill="none" stroke="#FC468F" stroke-width="1.0004" d="M50.9,86.1C56.4,71.9,66.7,66,81.7,68.3"/>
<path id="_233375880_1_" fill="none" stroke="#FC468F" stroke-width="1.0004" d="M68.6,81.8c-11.9-9.6-23.7-9.6-35.6,0"/>
<path id="_233375784_1_" fill="none" stroke="#FC468F" stroke-width="1.0004" d="M68.6,81.8C54.4,65.3,36.6,55.1,15.2,51"/>
<line id="_233375688_1_" fill="none" stroke="#FC468F" stroke-width="1.0004" x1="68.6" y1="81.8" x2="33" y2="20.2"/>
<path id="_233375592_1_" fill="none" stroke="#FC468F" stroke-width="1.0004" d="M68.7,82c-7.2-20.6-7.2-41.1,0-61.7"/>
<path id="_222796024_1_" fill="none" stroke="#FC468F" stroke-width="1.0004" d="M68.6,81.6c-2.4-15.1,3.6-25.3,17.8-30.8"/>
<path id="_222795880_1_" fill="none" stroke="#FC468F" stroke-width="1.0004" d="M81.6,68.9c-15.1-2.4-25.3,3.6-30.8,17.8"/>
<path id="_222795784_1_" fill="none" stroke="#FC468F" stroke-width="1.0004" d="M81.6,68.9c-20.6-7.2-41.1-7.2-61.7,0"/>
<line id="_222795688_1_" fill="none" stroke="#FC468F" stroke-width="1.0004" x1="81.6" y1="68.8" x2="20" y2="33.2"/>
<path id="_222795568_1_" fill="none" stroke="#FC468F" stroke-width="1.0004" d="M81.8,68.9C65.2,54.7,55,36.9,50.9,15.5"/>
<path id="_222795496_1_" fill="none" stroke="#FC468F" stroke-width="1.0004" d="M81.5,68.6c-9.6-11.9-9.6-23.7,0-35.6"/>
<path id="_222795352_1_" fill="none" stroke="#FC468F" stroke-width="1.0004" d="M86.5,51.1c-14.2,5.5-20.2,15.8-17.8,30.8"/>
<path id="_222795256_1_" fill="none" stroke="#FC468F" stroke-width="1.0004" d="M86.5,51.1c-21.4,4.1-39.2,14.3-53.4,30.8"/>
<line id="_222795160_1_" fill="none" stroke="#FC468F" stroke-width="1.0004" x1="86.5" y1="51" x2="15.3" y2="51"/>
<path id="_233000624_1_" fill="none" stroke="#FC468F" stroke-width="1.0004" d="M86.7,51C65.3,47,47.5,36.7,33.3,20.2"/>
<path id="_233000552_1_" fill="none" stroke="#FC468F" stroke-width="1.0004" d="M86.3,50.9c-14.2-5.5-20.2-15.8-17.8-30.8"/>
<path id="_233000408_1_" fill="none" stroke="#FC468F" stroke-width="1.0004" d="M81.7,33.2c-9.6,11.9-9.6,23.7,0,35.6"/>
<path id="_233000312_1_" fill="none" stroke="#FC468F" stroke-width="1.0004" d="M81.7,33.2c-16.5,14.2-26.8,32-30.8,53.4"/>
<line id="_233000216_1_" fill="none" stroke="#FC468F" stroke-width="1.0004" x1="81.7" y1="33.1" x2="20" y2="68.7"/>
<path id="_233000096_1_" fill="none" stroke="#FC468F" stroke-width="1.0004" d="M81.8,33.1c-20.6,7.2-41.1,7.2-61.7,0"/>
<path id="_233000024_1_" fill="none" stroke="#FC468F" stroke-width="1.0004" d="M81.4,33.2c-15.1,2.4-25.3-3.6-30.8-17.8"/>
<path id="_232999880_1_" fill="none" stroke="#FC468F" stroke-width="1.0004" d="M68.8,20.2C66.5,35.3,72.4,45.6,86.6,51"/>
<path id="_232999784_1_" fill="none" stroke="#FC468F" stroke-width="1.0004" d="M68.8,20.2c-7.2,20.6-7.2,41.1,0,61.7"/>
<line id="_233249464_1_" fill="none" stroke="#FC468F" stroke-width="1.0004" x1="68.8" y1="20.2" x2="33.2" y2="81.8"/>
<path id="_232914608_1_" fill="none" stroke="#FC468F" stroke-width="1.0004" d="M68.9,20.1c-14.2,16.5-32,26.8-53.4,30.8"/>
<path id="_232814608_1_" fill="none" stroke="#FC468F" stroke-width="1.0004" d="M68.6,20.3c-11.9,9.6-23.7,9.6-35.6,0"/>
</svg>
