<?xml version="1.0" encoding="UTF-8"?>
<!-- Generator: Adobe Illustrator 15.0.0, SVG Export Plug-In  -->
<!DOCTYPE svg PUBLIC "-//W3C//DTD SVG 1.1//EN" "http://www.w3.org/Graphics/SVG/1.1/DTD/svg11.dtd">
<svg version="1.1" xmlns="http://www.w3.org/2000/svg" xmlns:xlink="http://www.w3.org/1999/xlink" xmlns:a="http://ns.adobe.com/AdobeSVGViewerExtensions/3.0/" x="0px" y="0px" width="120px" height="120px" viewBox="-8 -8 120 120" enable-background="new -8 -8 120 120" xml:space="preserve">
<defs>
</defs>
<line id="_258953552_1_" fill="none" stroke="#FC468F" stroke-width="2.3622" x1="34.7" y1="0" x2="34.7" y2="104"/>
<line id="_258953456_1_" fill="none" stroke="#FC468F" stroke-width="2.3622" x1="69.3" y1="0" x2="69.3" y2="104"/>
<line id="_258953336_1_" fill="none" stroke="#FC468F" stroke-width="2.3622" x1="0" y1="69.3" x2="104" y2="69.3"/>
<line id="_258953264_1_" fill="none" stroke="#FC468F" stroke-width="2.3622" x1="0" y1="34.7" x2="104" y2="34.7"/>
<path id="_258953120_1_" fill="#4BAAD2" d="M11.1,23.5h2.5l1.5-14L9,9.7l-0.2,1.9h3.6L11.1,23.5L11.1,23.5z M20.1,23.5h2.5l1.5-14  L18,9.7l-0.2,1.9h3.6L20.1,23.5L20.1,23.5z"/>
<path id="_258953024_1_" fill="#4BAAD2" d="M51.4,26.3h2.5l0.5-4.8h3l0.2-2h-3l1.2-11h-3.8l-6.9,11l-0.2,2h7.1L51.4,26.3L51.4,26.3z   M47.5,19.4l5.6-9.1l-1,9.1H47.5z"/>
<polygon id="_258952928_1_" fill="#4BAAD2" points="83.9,26.8 93,10.4 93.2,8.5 82.7,8.5 82.4,10.5 90.3,10.5 81.9,25.8 "/>
<path id="_258952832_1_" fill="#4BAAD2" d="M10.7,58.5h9.8l0.2-2.1h-6.6c0.6-0.4,1.2-0.8,1.8-1.2c0.6-0.5,1.2-0.9,1.8-1.5  c0.6-0.5,1.1-1.1,1.6-1.7c0.5-0.6,0.8-1.3,1.1-1.9c0.3-0.7,0.4-1.4,0.4-2.1c0-0.4-0.1-0.9-0.2-1.3c-0.1-0.4-0.4-0.8-0.7-1.2  c-0.3-0.3-0.8-0.6-1.4-0.8c-0.6-0.2-1.3-0.3-2.1-0.3c-0.6,0-1.1,0.1-1.6,0.2c-0.5,0.1-1,0.3-1.4,0.4c-0.4,0.2-0.8,0.4-1.1,0.6  l0.7,1.8c0.2-0.1,0.5-0.3,0.8-0.4c0.3-0.1,0.6-0.2,1-0.3c0.4-0.1,0.8-0.1,1.2-0.1c0.4,0,0.8,0.1,1.2,0.2c0.3,0.1,0.6,0.3,0.8,0.6  c0.2,0.3,0.3,0.6,0.3,1.1c0,0.5-0.1,1.1-0.4,1.6c-0.2,0.5-0.6,1-1,1.5c-0.4,0.5-0.9,1-1.4,1.4c-0.5,0.5-1,0.9-1.6,1.3  c-0.5,0.4-1.1,0.8-1.6,1.2c-0.5,0.4-1,0.7-1.4,1.1L10.7,58.5z"/>
<path id="_258952736_1_" fill="#4BAAD2" d="M85.2,60.7c0.6,0,1.2-0.1,1.8-0.2c0.6-0.1,1.2-0.3,1.7-0.6c0.5-0.3,1-0.6,1.4-1  c0.4-0.4,0.7-0.9,1-1.4c0.2-0.5,0.4-1.2,0.4-1.9c0-0.5-0.1-1-0.3-1.4c-0.2-0.4-0.4-0.8-0.8-1.2c-0.3-0.4-0.7-0.7-1.1-1  c-0.4-0.3-0.8-0.6-1.2-0.8c0.5-0.3,1-0.6,1.4-0.9c0.4-0.4,0.8-0.7,1.2-1.2c0.4-0.4,0.6-0.9,0.8-1.4c0.2-0.5,0.3-1.1,0.3-1.7  c0-0.6-0.1-1.1-0.4-1.6c-0.3-0.5-0.6-0.8-1-1.1c-0.4-0.3-0.9-0.5-1.4-0.7c-0.5-0.1-1.1-0.2-1.6-0.2c-0.7,0-1.5,0.1-2.2,0.3  c-0.7,0.2-1.3,0.5-1.8,0.9c-0.5,0.4-1,0.9-1.3,1.4c-0.3,0.6-0.5,1.3-0.5,2c0,0.6,0.1,1.2,0.4,1.7c0.2,0.5,0.6,0.9,1,1.3  c0.4,0.4,0.8,0.8,1.3,1.1c-0.6,0.3-1.2,0.7-1.7,1c-0.5,0.4-1,0.8-1.4,1.3c-0.4,0.5-0.7,1-0.9,1.5c-0.2,0.6-0.3,1.2-0.3,1.9  c0,0.6,0.1,1.2,0.4,1.7c0.3,0.5,0.7,0.9,1.1,1.2c0.5,0.3,1,0.6,1.6,0.7C83.9,60.6,84.6,60.7,85.2,60.7L85.2,60.7z M85.6,58.7  c-0.6,0-1.1-0.1-1.5-0.3c-0.5-0.2-0.8-0.4-1.1-0.8c-0.3-0.3-0.4-0.8-0.4-1.3c0-0.5,0.1-1,0.3-1.4c0.2-0.4,0.4-0.8,0.8-1.2  c0.3-0.3,0.7-0.7,1-0.9c0.4-0.3,0.8-0.5,1.1-0.8c0.2,0.2,0.5,0.3,0.7,0.5c0.3,0.2,0.6,0.4,0.8,0.6c0.3,0.2,0.5,0.5,0.8,0.7  c0.2,0.3,0.4,0.5,0.6,0.8c0.1,0.3,0.2,0.6,0.2,0.9c0,0.6-0.2,1.2-0.5,1.6c-0.3,0.5-0.7,0.8-1.2,1C86.8,58.5,86.3,58.7,85.6,58.7z   M86.7,50.2c-0.3-0.2-0.5-0.4-0.8-0.6c-0.3-0.2-0.6-0.5-0.8-0.8c-0.3-0.3-0.5-0.6-0.6-0.9c-0.2-0.3-0.3-0.6-0.3-1  c0-0.5,0.1-1,0.4-1.4c0.2-0.4,0.6-0.7,1-0.9c0.4-0.2,0.9-0.3,1.5-0.3c0.4,0,0.8,0.1,1.2,0.2c0.4,0.1,0.7,0.3,0.9,0.6  c0.2,0.3,0.3,0.6,0.3,1c0,0.6-0.1,1.1-0.4,1.6c-0.2,0.5-0.6,0.9-1,1.3C87.6,49.5,87.2,49.9,86.7,50.2z"/>
<path id="_258952640_1_" fill="#4BAAD2" d="M49.8,96.7c1,0,1.9-0.2,2.6-0.5c0.7-0.3,1.4-0.8,1.9-1.4c0.5-0.6,0.9-1.3,1.1-2.1  c0.3-0.8,0.4-1.7,0.4-2.6c0-0.8-0.1-1.5-0.4-2.1s-0.6-1.1-1.1-1.5c-0.5-0.4-1-0.7-1.6-0.9c-0.6-0.2-1.3-0.3-2-0.3  c-0.4,0-0.8,0-1.2,0.1c-0.4,0.1-0.8,0.2-1.2,0.3c0,0.1,0,0.2,0,0.3c0,0.1,0,0.3,0,0.5c0,0.2,0,0.4,0,0.5c0,0.2,0,0.3,0,0.4  c0,0.1,0,0.2,0,0.2c0.3-0.1,0.7-0.2,1-0.2c0.3,0,0.6-0.1,0.9-0.1c0.6,0,1.1,0.1,1.6,0.3c0.5,0.2,0.8,0.5,1.1,1  c0.3,0.4,0.4,1.1,0.4,1.8c0,0.5-0.1,1-0.2,1.6c-0.1,0.5-0.3,1-0.5,1.4c-0.2,0.4-0.6,0.7-1,1c-0.4,0.2-0.9,0.4-1.5,0.4  c-0.7,0-1.3-0.2-1.8-0.5c-0.5-0.3-0.9-0.8-1.1-1.3c-0.2-0.6-0.4-1.3-0.4-2.1c0-0.5,0-1,0-1.4c0-0.4,0.1-0.9,0.1-1.3  c0.1-0.5,0.2-0.9,0.3-1.5c0.1-0.8,0.3-1.6,0.6-2.3c0.3-0.7,0.6-1.4,1.1-1.9c0.4-0.6,1-1,1.6-1.3c0.6-0.3,1.4-0.5,2.2-0.5  c0.4,0,0.8,0,1.2,0.1c0.4,0.1,0.7,0.2,1,0.3l0.7-2.1c-0.4-0.2-0.8-0.3-1.2-0.3c-0.4-0.1-0.9-0.1-1.3-0.1c-1.1,0-2.1,0.2-3,0.5  c-0.9,0.3-1.6,0.8-2.3,1.4c-0.6,0.6-1.2,1.3-1.6,2.1s-0.8,1.6-1.1,2.6c-0.3,0.9-0.5,1.9-0.6,2.8c-0.1,1-0.2,1.9-0.2,2.9  c0,2,0.5,3.5,1.4,4.6C46.6,96.2,48,96.7,49.8,96.7L49.8,96.7z"/>
<path id="_258952544_1_" fill="#4BAAD2" d="M83.7,97.7c1.1,0,2.1-0.2,3-0.5c0.9-0.3,1.6-0.8,2.3-1.4c0.7-0.6,1.2-1.3,1.7-2.1  c0.5-0.8,0.8-1.6,1.1-2.6c0.3-0.9,0.5-1.9,0.6-2.8c0.1-1,0.2-1.9,0.2-2.9c0-2-0.5-3.5-1.4-4.6c-0.9-1-2.3-1.5-4.1-1.6  c-1,0-1.9,0.2-2.6,0.5c-0.8,0.3-1.4,0.8-1.9,1.4c-0.5,0.6-0.9,1.3-1.1,2.1C81.1,84.1,81,85,81,85.9c0,0.8,0.1,1.5,0.4,2.1  c0.3,0.6,0.6,1.1,1.1,1.5c0.5,0.4,1,0.7,1.6,0.9c0.6,0.2,1.3,0.3,2,0.3c0.4,0,0.8,0,1.2-0.1c0.4-0.1,0.8-0.1,1.2-0.3l0.1-1.9  c-0.3,0.1-0.6,0.1-1,0.2c-0.3,0-0.6,0.1-0.9,0.1c-0.6,0-1.2-0.1-1.6-0.3c-0.5-0.2-0.8-0.5-1.1-1c-0.3-0.5-0.4-1.1-0.4-1.8  c0-0.5,0.1-1.1,0.2-1.6c0.1-0.5,0.3-1,0.5-1.4c0.3-0.4,0.6-0.8,1-1c0.4-0.2,0.9-0.4,1.5-0.4c1.1,0,1.9,0.3,2.4,1  C89.7,83,90,84,90,85.2c0,0.8,0,1.5-0.1,2.3c-0.1,0.8-0.2,1.6-0.3,2.3c-0.2,0.8-0.4,1.5-0.7,2.2c-0.3,0.7-0.6,1.3-1.1,1.8  c-0.4,0.5-1,0.9-1.6,1.2c-0.6,0.3-1.4,0.4-2.2,0.4c-0.4,0-0.8,0-1.2-0.1c-0.4-0.1-0.7-0.1-1-0.3l-0.7,2.1c0.4,0.2,0.8,0.3,1.2,0.3  S83.2,97.7,83.7,97.7L83.7,97.7z"/>
<polygon id="_258952448_1_" fill="#4BAAD2" points="48.1,53.2 55.6,53.2 55.9,51.1 48.3,51.1 "/>
<polygon id="_258952280_1_" fill="#4BAAD2" points="13.6,88.1 21.1,88.1 21.3,86 13.8,86 "/>
</svg>