<?xml version="1.0" encoding="UTF-8"?>
<!-- Generator: Adobe Illustrator 15.0.0, SVG Export Plug-In  -->
<!DOCTYPE svg PUBLIC "-//W3C//DTD SVG 1.1//EN" "http://www.w3.org/Graphics/SVG/1.1/DTD/svg11.dtd">
<svg version="1.1" xmlns="http://www.w3.org/2000/svg" xmlns:xlink="http://www.w3.org/1999/xlink" xmlns:a="http://ns.adobe.com/AdobeSVGViewerExtensions/3.0/" x="0px" y="0px" width="750px" height="750px" viewBox="-8 -8 750 750" enable-background="new -8 -8 750 750" xml:space="preserve">
<defs>
</defs>
<circle id="_232200264_1_" fill="none" stroke="#888888" stroke-width="0.9" cx="367" cy="367" r="305.2"/>
<line id="_232200168_1_" fill="none" stroke="#888888" stroke-width="0.9" x1="0" y1="367" x2="734" y2="367"/>
<line id="_232200072_1_" fill="none" stroke="#888888" stroke-width="0.9" x1="367" y1="734" x2="367" y2="0"/>
<line id="_232199904_1_" fill="none" stroke="#888888" stroke-width="0.9" x1="49.4" y1="550.5" x2="685" y2="183.5"/>
<line id="_232199832_1_" fill="none" stroke="#888888" stroke-width="0.9" x1="550.7" y1="684.8" x2="183.7" y2="49.2"/>
<line id="_232199664_1_" fill="none" stroke="#888888" stroke-width="0.9" x1="183.5" y1="684.8" x2="550.5" y2="49.2"/>
<line id="_232199616_1_" fill="none" stroke="#888888" stroke-width="0.9" x1="684.8" y1="550.5" x2="49.2" y2="183.5"/>
<path id="_231537816_1_" fill="none" stroke="#888888" stroke-width="0.9" d="M368.7,111.1C408.2,213.6,482.3,256.4,591,239.4"/>
<path id="_231537720_1_" fill="none" stroke="#888888" stroke-width="0.9" d="M368.7,111.1C397.9,265.3,472,393.6,591,495.9"/>
<line id="_231537624_1_" fill="none" stroke="#888888" stroke-width="0.9" x1="368.4" y1="111.1" x2="368.4" y2="624.2"/>
<path id="_231537528_1_" fill="none" stroke="#888888" stroke-width="0.9" d="M368.6,109.9c-29.2,154.3-103.3,282.6-222.2,384.9"/>
<path id="_231537432_1_" fill="none" stroke="#888888" stroke-width="0.9" d="M367.7,112.8c-39.5,102.6-113.6,145.4-222.3,128.3"/>
<path id="_231537288_1_" fill="none" stroke="#888888" stroke-width="0.9" d="M239.6,143.9c85.5,69.1,171.1,69.1,256.7,0"/>
<path id="_231537192_1_" fill="none" stroke="#888888" stroke-width="0.9" d="M239.6,143.9C342,262.9,470.3,337,624.5,366.1"/>
<line id="_231537096_1_" fill="none" stroke="#888888" stroke-width="0.9" x1="239.3" y1="144.1" x2="495.9" y2="588.5"/>
<path id="_231536976_1_" fill="none" stroke="#888888" stroke-width="0.9" d="M238.9,143c51.8,148.2,51.8,296.3,0,444.4"/>
<path id="_231536904_1_" fill="none" stroke="#888888" stroke-width="0.9" d="M239.5,145.9c17.1,108.6-25.7,182.7-128.3,222.3"/>
<path id="_231536760_1_" fill="none" stroke="#888888" stroke-width="0.9" d="M146.1,237.8c108.6,17.1,182.7-25.7,222.3-128.3"/>
<path id="_231536664_1_" fill="none" stroke="#888888" stroke-width="0.9" d="M146.1,237.8c148.2,51.8,296.3,51.8,444.4,0"/>
<line id="_231536568_1_" fill="none" stroke="#888888" stroke-width="0.9" x1="145.9" y1="238.1" x2="590.3" y2="494.7"/>
<path id="_231536448_1_" fill="none" stroke="#888888" stroke-width="0.9" d="M145,237.4c119,102.4,193.1,230.7,222.2,384.9"/>
<path id="_231536376_1_" fill="none" stroke="#888888" stroke-width="0.9" d="M147,239.6c69.1,85.5,69.1,171.1,0,256.7"/>
<path id="_231536232_1_" fill="none" stroke="#888888" stroke-width="0.9" d="M111,366.8c102.6-39.5,145.4-113.6,128.3-222.3"/>
<path id="_231536136_1_" fill="none" stroke="#888888" stroke-width="0.9" d="M111,366.8c154.3-29.2,282.6-103.3,384.9-222.2"/>
<line id="_231536040_1_" fill="none" stroke="#888888" stroke-width="0.9" x1="111" y1="367.1" x2="624.1" y2="367.1"/>
<path id="_231535920_1_" fill="none" stroke="#888888" stroke-width="0.9" d="M109.9,366.9c154.3,29.2,282.6,103.3,384.9,222.2"/>
<path id="_231535848_1_" fill="none" stroke="#888888" stroke-width="0.9" d="M112.7,367.8C215.3,407.3,258,481.4,241,590.1"/>
<path id="_231535704_1_" fill="none" stroke="#888888" stroke-width="0.9" d="M145,494.9c69.1-85.5,69.1-171.1,0-256.7"/>
<path id="_231535608_1_" fill="none" stroke="#888888" stroke-width="0.9" d="M145,494.9C264,392.5,338.1,264.1,367.2,110"/>
<line id="_231535512_1_" fill="none" stroke="#888888" stroke-width="0.9" x1="145.2" y1="495.1" x2="589.6" y2="238.6"/>
<path id="_231535392_1_" fill="none" stroke="#888888" stroke-width="0.9" d="M144.1,495.6c148.2-51.8,296.3-51.8,444.4,0"/>
<path id="_231535320_1_" fill="none" stroke="#888888" stroke-width="0.9" d="M147,494.9c108.6-17.1,182.7,25.7,222.3,128.3"/>
<path id="_231535176_1_" fill="none" stroke="#888888" stroke-width="0.9" d="M238.9,588.6c17.1-108.6-25.7-182.7-128.3-222.3"/>
<path id="_231535080_1_" fill="none" stroke="#888888" stroke-width="0.9" d="M238.9,588.6c51.8-148.2,51.8-296.3,0-444.4"/>
<line id="_231534984_1_" fill="none" stroke="#888888" stroke-width="0.9" x1="239.1" y1="588.8" x2="495.7" y2="144.4"/>
<path id="_231534864_1_" fill="none" stroke="#888888" stroke-width="0.9" d="M238.4,589.7c102.4-119,230.7-193.1,384.9-222.2"/>
<path id="_231534792_1_" fill="none" stroke="#888888" stroke-width="0.9" d="M240.6,587.7c85.5-69.1,171.1-69.1,256.7,0"/>
<path id="_231534648_1_" fill="none" stroke="#888888" stroke-width="0.9" d="M366.2,622.2c-39.5-102.6-113.6-145.4-222.3-128.3"/>
<path id="_231534552_1_" fill="none" stroke="#888888" stroke-width="0.9" d="M366.2,622.2C337,467.9,262.9,339.6,143.9,237.3"/>
<line id="_231534456_1_" fill="none" stroke="#888888" stroke-width="0.9" x1="366.5" y1="622.2" x2="366.5" y2="109"/>
<path id="_220278600_1_" fill="none" stroke="#888888" stroke-width="0.9" d="M366.3,623.3C395.5,469,469.6,340.7,588.6,238.4"/>
<path id="_222597592_1_" fill="none" stroke="#888888" stroke-width="0.9" d="M367.2,620.5c39.5-102.6,113.6-145.4,222.3-128.3"/>
<path id="_229427128_1_" fill="none" stroke="#888888" stroke-width="0.9" d="M495,589.6c-85.5-69.1-171.1-69.1-256.7,0"/>
<path id="_229427032_1_" fill="none" stroke="#888888" stroke-width="0.9" d="M495,589.6C392.5,470.6,264.2,396.5,110,367.4"/>
<line id="_229426936_1_" fill="none" stroke="#888888" stroke-width="0.9" x1="495.2" y1="589.4" x2="238.7" y2="145"/>
<path id="_229426864_1_" fill="none" stroke="#888888" stroke-width="0.9" d="M495.7,590.5c-51.8-148.2-51.8-296.3,0-444.4"/>
<path id="_229426024_1_" fill="none" stroke="#888888" stroke-width="0.9" d="M495,587.6C477.9,479,520.7,404.9,623.3,365.3"/>
<path id="_229425808_1_" fill="none" stroke="#888888" stroke-width="0.9" d="M589,496c-108.6-17.1-182.7,25.7-222.3,128.3"/>
<path id="_229425664_1_" fill="none" stroke="#888888" stroke-width="0.9" d="M589,496c-148.2-51.8-296.3-51.8-444.4,0"/>
<line id="_229425592_1_" fill="none" stroke="#888888" stroke-width="0.9" x1="589.1" y1="495.7" x2="144.7" y2="239.1"/>
<path id="_229425544_1_" fill="none" stroke="#888888" stroke-width="0.9" d="M590,496.4C471,394,396.9,265.7,367.8,111.5"/>
<path id="_229426576_1_" fill="none" stroke="#888888" stroke-width="0.9" d="M588,494.2c-69.1-85.5-69.1-171.1,0-256.7"/>
<path id="_229426672_1_" fill="none" stroke="#888888" stroke-width="0.9" d="M624.4,367.7C521.8,407.2,479,481.3,496,590"/>
<path id="_229426816_1_" fill="none" stroke="#888888" stroke-width="0.9" d="M624.4,367.7C470.1,396.9,341.8,471,239.5,590"/>
<line id="_229420192_1_" fill="none" stroke="#888888" stroke-width="0.9" x1="624.4" y1="367.4" x2="111.2" y2="367.4"/>
<path id="_229421248_1_" fill="none" stroke="#888888" stroke-width="0.9" d="M625.5,367.6c-154.3-29.2-282.6-103.3-384.9-222.2"/>
<path id="_229420960_1_" fill="none" stroke="#888888" stroke-width="0.9" d="M622.7,366.7c-102.6-39.5-145.4-113.6-128.3-222.3"/>
<path id="_229420672_1_" fill="none" stroke="#888888" stroke-width="0.9" d="M589.6,238.9c-69.1,85.5-69.1,171.1,0,256.7"/>
<path id="_229420768_1_" fill="none" stroke="#888888" stroke-width="0.9" d="M589.6,238.9c-119,102.4-193.1,230.7-222.2,384.9"/>
<line id="_229421704_1_" fill="none" stroke="#888888" stroke-width="0.9" x1="589.4" y1="238.6" x2="145" y2="495.2"/>
<path id="_229421944_1_" fill="none" stroke="#888888" stroke-width="0.9" d="M590.5,238.2C442.3,290,294.1,290,146,238.2"/>
<path id="_229421992_1_" fill="none" stroke="#888888" stroke-width="0.9" d="M587.6,238.8C479,255.9,404.9,213.1,365.3,110.5"/>
<path id="_229422208_1_" fill="none" stroke="#888888" stroke-width="0.9" d="M496.7,145.3C479.6,253.9,522.4,328,625,367.6"/>
<path id="_229422352_1_" fill="none" stroke="#888888" stroke-width="0.9" d="M496.7,145.3c-51.8,148.2-51.8,296.3,0,444.4"/>
<line id="_229422496_1_" fill="none" stroke="#888888" stroke-width="0.9" x1="496.4" y1="145.1" x2="239.8" y2="589.6"/>
<path id="_229422736_1_" fill="none" stroke="#888888" stroke-width="0.9" d="M497.1,144.3c-102.4,119-230.7,193.1-384.9,222.2"/>
<path id="_229422808_1_" fill="none" stroke="#888888" stroke-width="0.9" d="M494.9,146.3c-85.5,69.1-171.1,69.1-256.7,0"/>
</svg>