<?xml version="1.0" encoding="utf-8"?>
<!-- Generator: Adobe Illustrator 15.0.0, SVG Export Plug-In  -->
<!DOCTYPE svg PUBLIC "-//W3C//DTD SVG 1.1//EN" "http://www.w3.org/Graphics/SVG/1.1/DTD/svg11.dtd" [
	<!ENTITY ns_flows "http://ns.adobe.com/Flows/1.0/">
]>
<svg version="1.1"
	 xmlns="http://www.w3.org/2000/svg" xmlns:xlink="http://www.w3.org/1999/xlink" xmlns:a="http://ns.adobe.com/AdobeSVGViewerExtensions/3.0/"
	 x="0px" y="0px" width="500px" height="500px" viewBox="-6.5 -6.5 500 500" enable-background="new -6.5 -6.5 500 500"
	 xml:space="preserve">
<defs>
</defs>
<circle id="_7576728_1_" fill="none" stroke="#888888" stroke-width="0.9" cx="243.5" cy="243.5" r="202.5"/>
<line id="_238518904_1_" fill="none" stroke="#888888" stroke-width="0.9" x1="0" y1="243.5" x2="487" y2="243.5"/>
<line id="_239080608_1_" fill="none" stroke="#888888" stroke-width="0.9" x1="243.5" y1="487" x2="243.5" y2="0"/>
<line id="_236163080_1_" fill="none" stroke="#888888" stroke-width="0.9" x1="32.7" y1="365.3" x2="454.5" y2="121.8"/>
<line id="_7576752_1_" fill="none" stroke="#888888" stroke-width="0.9" x1="365.4" y1="454.4" x2="121.9" y2="32.6"/>
<line id="_239050464_1_" fill="none" stroke="#888888" stroke-width="0.9" x1="121.8" y1="454.4" x2="365.3" y2="32.6"/>
<line id="_239049848_1_" fill="none" stroke="#888888" stroke-width="0.9" x1="454.4" y1="365.3" x2="32.6" y2="121.8"/>
<circle id="_7573776_1_" fill="none" stroke="#888888" stroke-width="0.9" cx="419.4" cy="142.2" r="24"/>
<path id="_272317888_1_" fill="none" stroke="#888888" stroke-width="0.9" d="M404.7,128.8c10.3,4.8,23,3.8,29.5,0"/>
<path id="_274063248_1_" fill="none" stroke="#888888" stroke-width="0.9" d="M434.2,155.7c-10.4-4.8-23-3.8-29.5,0"/>
<line id="_275021608_1_" fill="none" stroke="#888888" stroke-width="0.9" x1="412.3" y1="153.8" x2="412.3" y2="131.5"/>
<line id="_273792080_1_" fill="none" stroke="#888888" stroke-width="0.9" x1="426.5" y1="153.6" x2="426.5" y2="131.4"/>
<circle id="_7573104_1_" fill="none" stroke="#FF5A9A" stroke-width="1.9996" cx="345.3" cy="418.9" r="24"/>
<line id="_275022304_1_" fill="none" stroke="#FF5A9A" stroke-width="1.9996" x1="334.7" y1="413.4" x2="334.7" y2="428.4"/>
<path id="_275022376_1_" fill="none" stroke="#FF5A9A" stroke-width="1.9996" d="M329.3,407.5c2.7,0,5.4,2,5.4,6"/>
<line id="_461934896_1_" fill="none" stroke="#FF5A9A" stroke-width="1.9996" x1="345.3" y1="413.4" x2="345.3" y2="428.4"/>
<path id="_273792512_1_" fill="none" stroke="#FF5A9A" stroke-width="1.9996" d="M334.7,413.4c0-7.9,10.6-7.8,10.6,0.2"/>
<line id="_273880672_1_" fill="none" stroke="#FF5A9A" stroke-width="1.9996" x1="355.9" y1="413.4" x2="355.9" y2="428.4"/>
<path id="_272904616_1_" fill="none" stroke="#FF5A9A" stroke-width="1.9996" d="M345.3,413.4c0-7.9,10.6-7.8,10.6,0.2"/>
<path id="_461934920_1_" fill="none" stroke="#FF5A9A" stroke-width="1.9996" d="M356,428.3c0,4,2.7,5.9,5.4,5.9"/>
<path id="_275021416_1_" fill="none" stroke="#FF5A9A" stroke-width="1.9996" d="M356,429.3c2-29.1,25.5-8.7-8.9,3.1"/>
<path id="_275023360_1_" fill="none" stroke="#FF5A9A" stroke-width="1.9996" d="M33.8,255.2c0,0-1.7-23.7-9.9-22.9"/>
<path id="_272317312_1_" fill="none" stroke="#FF5A9A" stroke-width="1.9996" d="M33.9,255c-0.4-6.4,9.5-47,15.5-2.1"/>
<path id="_275023608_1_" fill="none" stroke="#FF5A9A" stroke-width="1.9996" d="M49.2,252.2c0.3,7.5-2,10.1-8.8,10.1"/>
<ellipse id="_275024448_1_" fill="none" stroke="#FF5A9A" stroke-width="1.9996" cx="53.9" cy="251.7" rx="4.7" ry="4.7"/>
<circle id="_7571352_1_" fill="none" stroke="#FF5A9A" stroke-width="1.9996" cx="41.2" cy="244.1" r="24"/>
<circle id="_7571232_1_" fill="none" stroke="#888888" stroke-width="0.9" cx="419.5" cy="344.8" r="24"/>
<path id="_273792680_1_" fill="none" stroke="#888888" stroke-width="0.9" d="M410.7,354.1c6.2-4.4-9.3-24.1,8.9-23.7
	c23.5,3.1-18.3,35.4,17.4,24.5"/>
<ellipse id="_273880960_1_" fill="none" stroke="#888888" stroke-width="0.9" cx="407.6" cy="350.9" rx="4.7" ry="4.7"/>
<circle id="_7570800_1_" fill="none" stroke="#888888" stroke-width="0.9" cx="244" cy="41" r="24"/>
<path id="_272317216_1_" fill="none" stroke="#888888" stroke-width="0.9" d="M243.9,55.5c0,0-0.6-36.5-18.9-18.8"/>
<path id="_273775824_1_" fill="none" stroke="#888888" stroke-width="0.9" d="M244.1,55.2c0,0,0.6-36.5,18.9-18.8"/>
<circle id="_7570368_1_" fill="none" stroke="#FF5A9A" stroke-width="1.9996" cx="446.5" cy="243.5" r="24"/>
<path id="_274128120_1_" fill="none" stroke="#FF5A9A" stroke-width="1.9996" d="M431.7,234.1c9.4-4.3,20.9-3.5,26.8,0"/>
<ellipse id="_271953080_1_" fill="none" stroke="#FF5A9A" stroke-width="1.9996" cx="456.2" cy="238.7" rx="5.1" ry="5.1"/>
<path id="_272317816_1_" fill="none" stroke="#FF5A9A" stroke-width="1.9996" d="M461.3,252.9c-9.4,4.3-20.9,3.5-26.8,0"/>
<ellipse id="_272317408_1_" fill="none" stroke="#FF5A9A" stroke-width="1.9996" cx="436.8" cy="248.3" rx="5.1" ry="5.1"/>
<path id="_273801192_1_" fill="none" stroke="#FF5A9A" stroke-width="1.9996" d="M133.3,84.1c5.2-11.2,4.2-24.9,0-32"/>
<path id="_273792272_1_" fill="none" stroke="#FF5A9A" stroke-width="1.9996" d="M152.4,84.1c-5.2-11.2-4.2-24.9,0-32"/>
<line id="_273790560_1_" fill="none" stroke="#FF5A9A" stroke-width="1.9996" x1="128.5" y1="67.8" x2="157.1" y2="67.8"/>
<circle id="_226247624_1_" fill="none" stroke="#FF5A9A" stroke-width="1.9996" cx="142.8" cy="68.1" r="24"/>
<line id="_274859648_1_" fill="none" stroke="#FF5A9A" stroke-width="1.9996" x1="132.3" y1="413.2" x2="132.3" y2="427.8"/>
<path id="_274859672_1_" fill="none" stroke="#FF5A9A" stroke-width="1.9996" d="M127,407.4c2.6,0,5.2,2,5.2,5.9"/>
<line id="_272904496_1_" fill="none" stroke="#FF5A9A" stroke-width="1.9996" x1="142.6" y1="413.2" x2="142.6" y2="427.8"/>
<path id="_275024688_1_" fill="none" stroke="#FF5A9A" stroke-width="1.9996" d="M132.3,413.2c0-7.7,10.4-7.7,10.4,0.1"/>
<line id="_275023464_1_" fill="none" stroke="#FF5A9A" stroke-width="1.9996" x1="153" y1="413.2" x2="153" y2="427.8"/>
<path id="_461934848_1_" fill="none" stroke="#FF5A9A" stroke-width="1.9996" d="M142.6,413.2c0-7.7,10.4-7.7,10.4,0.1"/>
<path id="_461017960_1_" fill="none" stroke="#FF5A9A" stroke-width="1.9996" d="M153,427.7c0,3.9,2.6,5.8,5.2,5.8"/>
<line id="_275023560_1_" fill="none" stroke="#FF5A9A" stroke-width="1.9996" x1="158" y1="433.4" x2="165.3" y2="433.4"/>
<line id="_275024640_1_" fill="none" stroke="#FF5A9A" stroke-width="1.9996" x1="165.9" y1="432.6" x2="160.3" y2="438.9"/>
<line id="_275024544_1_" fill="none" stroke="#FF5A9A" stroke-width="1.9996" x1="165.9" y1="434.1" x2="160.3" y2="427.9"/>
<circle id="_272317936_1_" fill="none" stroke="#FF5A9A" stroke-width="1.9996" cx="142.7" cy="418.9" r="24"/>
<circle id="_235697888_1_" fill="none" stroke="#FF5A9A" stroke-width="1.9996" cx="345.3" cy="68.1" r="24"/>
<ellipse id="_274128192_1_" fill="none" stroke="#FF5A9A" stroke-width="1.9996" cx="345.3" cy="72.4" rx="14.6" ry="9.2"/>
<path id="_273791440_1_" fill="none" stroke="#FF5A9A" stroke-width="1.9996" d="M345,63.2c0,0-18.3-0.3-9.4-8.6"/>
<path id="_275023704_1_" fill="none" stroke="#FF5A9A" stroke-width="1.9996" d="M345.6,63.2c0,0,18.3-0.3,9.4-8.6"/>
<ellipse id="_235699496_1_" fill="none" stroke="#888888" stroke-width="0.9" cx="68.7" cy="142.2" rx="24" ry="24"/>
<path id="_458488104_1_" fill="none" stroke="#888888" stroke-width="0.9" d="M53.1,135.2c9.9-11.7,6.8,4,11.8,4
	c5,0,3.7-8.4,8.9-8.1c5.2,0.2,0.5,14.9,10.5,4.3"/>
<path id="_459467632_1_" fill="none" stroke="#888888" stroke-width="0.9" d="M53.1,149.8c9.9-11.7,6.8,4,11.8,4
	c5,0,3.7-8.4,8.9-8.1c5.2,0.2,0.5,14.9,10.5,4.3"/>
<circle id="_235700144_1_" fill="none" stroke="#888888" stroke-width="0.9" cx="68.7" cy="344.8" r="24"/>
<line id="_459354152_1_" fill="none" stroke="#888888" stroke-width="0.9" x1="81.6" y1="332" x2="54.5" y2="359.1"/>
<line id="_274119616_1_" fill="none" stroke="#888888" stroke-width="0.9" x1="68.5" y1="359.2" x2="54.4" y2="345.1"/>
<line id="_235700648_1_" fill="none" stroke="#888888" stroke-width="0.9" x1="81.6" y1="331.3" x2="66.7" y2="331.3"/>
<line id="_235700936_1_" fill="none" stroke="#888888" stroke-width="0.9" x1="82.2" y1="331.2" x2="82.2" y2="346.1"/>
<path id="_235701080_1_" fill="none" stroke="#888888" stroke-width="0.9" d="M268.1,446c0-13.3-10.7-24-24-24
	c-13.3,0-24,10.7-24,24c0,13.3,10.7,24,24,24C257.4,470,268.1,459.3,268.1,446z"/>
<line id="_275021776_1_" fill="none" stroke="#888888" stroke-width="0.9" x1="228.3" y1="455.5" x2="260" y2="455.5"/>
<path id="_274119568_1_" fill="none" stroke="#888888" stroke-width="0.9" d="M228.2,450.5h13.2 M246.7,450.5h13.2 M241.4,450.3
	c-3.5-1.1-6.1-4.4-6.1-8.3c0-4.8,3.9-8.8,8.8-8.8c4.8,0,8.8,3.9,8.8,8.8c0,3.9-2.6,7.3-6.2,8.4"/>
<path id="_238945472_1_" fill="none" stroke="#888888" stroke-width="0.9" d="M243.2,73.2c26.2,68.1,75.4,96.5,147.5,85.2"/>
<path id="_239087032_1_" fill="none" stroke="#888888" stroke-width="0.9" d="M243.2,73.2c19.4,102.4,68.5,187.5,147.5,255.4"/>
<line id="_80356304_1_" fill="none" stroke="#888888" stroke-width="0.9" x1="243" y1="73.2" x2="243" y2="413.7"/>
<path id="_239457000_1_" fill="none" stroke="#888888" stroke-width="0.9" d="M243.1,72.5C223.7,174.9,174.6,260,95.7,327.9"/>
<path id="_239483200_1_" fill="none" stroke="#888888" stroke-width="0.9" d="M242.5,74.4c-26.2,68.1-75.4,96.5-147.5,85.2"/>
<path id="_238556712_1_" fill="none" stroke="#888888" stroke-width="0.9" d="M158,95.7c56.7,45.8,113.5,45.8,170.3,0"/>
<path id="_239397800_1_" fill="none" stroke="#888888" stroke-width="0.9" d="M158,95.7c68,79,153.1,128.1,255.4,147.4"/>
<line id="_239483176_1_" fill="none" stroke="#888888" stroke-width="0.9" x1="157.8" y1="95.8" x2="328" y2="390.7"/>
<path id="_239483296_1_" fill="none" stroke="#888888" stroke-width="0.9" d="M157.5,95.1c34.4,98.3,34.4,196.6,0,294.9"/>
<path id="_239482744_1_" fill="none" stroke="#888888" stroke-width="0.9" d="M158,97c11.3,72.1-17.1,121.2-85.1,147.5"/>
<path id="_239049800_1_" fill="none" stroke="#888888" stroke-width="0.9" d="M95.8,158c72.1,11.3,121.2-17.1,147.5-85.1"/>
<path id="_239484376_1_" fill="none" stroke="#888888" stroke-width="0.9" d="M95.8,158c98.3,34.4,196.6,34.4,294.9,0"/>
<line id="_236163248_1_" fill="none" stroke="#888888" stroke-width="0.9" x1="95.7" y1="158.2" x2="390.6" y2="328.4"/>
<path id="_80356328_1_" fill="none" stroke="#888888" stroke-width="0.9" d="M95.1,157.7c79,68,128.1,153.1,147.4,255.4"/>
<path id="_235659840_1_" fill="none" stroke="#888888" stroke-width="0.9" d="M96.4,159.1c45.8,56.7,45.8,113.5,0,170.3"/>
<path id="_239408040_1_" fill="none" stroke="#888888" stroke-width="0.9" d="M73,242.9c68.1-26.2,96.5-75.4,85.2-147.5"/>
<path id="_239397680_1_" fill="none" stroke="#888888" stroke-width="0.9" d="M73,242.9c102.4-19.4,187.5-68.5,255.4-147.5"/>
<line id="_237951168_1_" fill="none" stroke="#888888" stroke-width="0.9" x1="73" y1="243.1" x2="413.5" y2="243.1"/>
<path id="_7575192_1_" fill="none" stroke="#888888" stroke-width="0.9" d="M72.3,243c102.4,19.4,187.5,68.5,255.4,147.5"/>
<path id="_238519912_1_" fill="none" stroke="#888888" stroke-width="0.9" d="M74.1,243.6c68.1,26.2,96.5,75.4,85.2,147.5"/>
<path id="_80241360_1_" fill="none" stroke="#888888" stroke-width="0.9" d="M95.6,327.9c45.8-56.7,45.8-113.5,0-170.3"/>
<path id="_239382168_1_" fill="none" stroke="#888888" stroke-width="0.9" d="M95.6,327.9c79-68,128.1-153.1,147.4-255.4"/>
<line id="_238869504_1_" fill="none" stroke="#888888" stroke-width="0.9" x1="95.7" y1="328.1" x2="390.6" y2="157.8"/>
<path id="_239408704_1_" fill="none" stroke="#888888" stroke-width="0.9" d="M95,328.4c98.3-34.4,196.6-34.4,294.9,0"/>
<path id="_239409160_1_" fill="none" stroke="#888888" stroke-width="0.9" d="M96.9,327.9c72.1-11.3,121.2,17.1,147.5,85.1"/>
<path id="_239392608_1_" fill="none" stroke="#888888" stroke-width="0.9" d="M157.9,390.1c11.3-72.1-17.1-121.2-85.1-147.5"/>
<path id="_238556640_1_" fill="none" stroke="#888888" stroke-width="0.9" d="M157.9,390.1c34.4-98.3,34.4-196.6,0-294.9"/>
<line id="_239048472_1_" fill="none" stroke="#888888" stroke-width="0.9" x1="158.1" y1="390.2" x2="328.3" y2="95.3"/>
<path id="_239408352_1_" fill="none" stroke="#888888" stroke-width="0.9" d="M157.6,390.8c68-79,153.1-128.1,255.4-147.4"/>
<path id="_238905136_1_" fill="none" stroke="#888888" stroke-width="0.9" d="M159,389.5c56.7-45.8,113.5-45.8,170.3,0"/>
<path id="_239483864_1_" fill="none" stroke="#888888" stroke-width="0.9" d="M242.8,412.9c-26.2-68.1-75.4-96.5-147.5-85.2"/>
<path id="_239483768_1_" fill="none" stroke="#888888" stroke-width="0.9" d="M242.8,412.9c-19.4-102.4-68.5-187.5-147.5-255.4"/>
<line id="_239483672_1_" fill="none" stroke="#888888" stroke-width="0.9" x1="243" y1="412.9" x2="243" y2="72.4"/>
<path id="_239392896_1_" fill="none" stroke="#888888" stroke-width="0.9" d="M242.9,413.6c19.4-102.4,68.5-187.5,147.5-255.4"/>
<path id="_239409184_1_" fill="none" stroke="#888888" stroke-width="0.9" d="M243.5,411.7c26.2-68.1,75.4-96.5,147.5-85.2"/>
<path id="_238846952_1_" fill="none" stroke="#888888" stroke-width="0.9" d="M327.8,390.3c-56.7-45.8-113.5-45.8-170.3,0"/>
<path id="_238846856_1_" fill="none" stroke="#888888" stroke-width="0.9" d="M327.8,390.3c-68-79-153.1-128.1-255.4-147.4"/>
<line id="_238846760_1_" fill="none" stroke="#888888" stroke-width="0.9" x1="328" y1="390.2" x2="157.7" y2="95.3"/>
<path id="_238846640_1_" fill="none" stroke="#888888" stroke-width="0.9" d="M328.2,390.9c-34.4-98.3-34.4-196.6,0-294.9"/>
<path id="_238846544_1_" fill="none" stroke="#888888" stroke-width="0.9" d="M327.8,389c-11.3-72.1,17.1-121.2,85.1-147.5"/>
<path id="_239483008_1_" fill="none" stroke="#888888" stroke-width="0.9" d="M390,328c-72.1-11.3-121.2,17.1-147.5,85.1"/>
<path id="_239483440_1_" fill="none" stroke="#888888" stroke-width="0.9" d="M390,328c-98.3-34.4-196.6-34.4-294.9,0"/>
<line id="_239453584_1_" fill="none" stroke="#888888" stroke-width="0.9" x1="390.1" y1="327.8" x2="95.2" y2="157.6"/>
<path id="_238519024_1_" fill="none" stroke="#888888" stroke-width="0.9" d="M390.7,328.3c-79-68-128.1-153.1-147.4-255.4"/>
<path id="_7574448_1_" fill="none" stroke="#888888" stroke-width="0.9" d="M389.3,326.9c-45.8-56.7-45.8-113.5,0-170.3"/>
<path id="_7574256_1_" fill="none" stroke="#888888" stroke-width="0.9" d="M412.8,243.1c-68.1,26.2-96.5,75.4-85.2,147.5"/>
<path id="_239381448_1_" fill="none" stroke="#888888" stroke-width="0.9" d="M412.8,243.1c-102.4,19.4-187.5,68.5-255.4,147.5"/>
<line id="_239485024_1_" fill="none" stroke="#888888" stroke-width="0.9" x1="412.8" y1="242.9" x2="72.3" y2="242.9"/>
<path id="_239484952_1_" fill="none" stroke="#888888" stroke-width="0.9" d="M413.5,243C311.1,223.6,226,174.5,158.1,95.5"/>
<path id="_239484856_1_" fill="none" stroke="#888888" stroke-width="0.9" d="M411.6,242.4c-68.1-26.2-96.5-75.4-85.2-147.5"/>
<path id="_239484208_1_" fill="none" stroke="#888888" stroke-width="0.9" d="M390.2,158.1c-45.8,56.7-45.8,113.5,0,170.3"/>
<path id="_239484112_1_" fill="none" stroke="#888888" stroke-width="0.9" d="M390.2,158.1c-79,68-128.1,153.1-147.4,255.4"/>
<line id="_80356256_1_" fill="none" stroke="#888888" stroke-width="0.9" x1="390.1" y1="157.9" x2="95.2" y2="328.2"/>
<path id="_239050560_1_" fill="none" stroke="#888888" stroke-width="0.9" d="M390.8,157.6c-98.3,34.4-196.6,34.4-294.9,0"/>
<path id="_239381832_1_" fill="none" stroke="#888888" stroke-width="0.9" d="M388.9,158.1c-72.1,11.3-121.2-17.1-147.5-85.1"/>
<path id="_239080704_1_" fill="none" stroke="#888888" stroke-width="0.9" d="M327.9,95.9C316.6,168,345,217.1,413,243.4"/>
<path id="_238905352_1_" fill="none" stroke="#888888" stroke-width="0.9" d="M327.9,95.9c-34.4,98.3-34.4,196.6,0,294.9"/>
<line id="_239453440_1_" fill="none" stroke="#888888" stroke-width="0.9" x1="327.7" y1="95.8" x2="157.5" y2="390.7"/>
<path id="_239457048_1_" fill="none" stroke="#888888" stroke-width="0.9" d="M328.2,95.2c-68,79-153.1,128.1-255.4,147.4"/>
<path id="_239453512_1_" fill="none" stroke="#888888" stroke-width="0.9" d="M326.7,96.5c-56.7,45.8-113.5,45.8-170.3,0"/>
<path id="_239482912_1_" fill="none" stroke="#FF5A9A" stroke-width="1.9996" d="M328.7,97c-11.3,72.1,17.1,121.2,85.1,147.5"/>
<path id="_239408112_1_" fill="none" stroke="#FF5A9A" stroke-width="1.9996" d="M328.7,97c-34.4,98.3-34.4,196.6,0,294.9"/>
<line id="_239482984_1_" fill="none" stroke="#FF5A9A" stroke-width="1.9996" x1="328.5" y1="96.9" x2="158.3" y2="391.7"/>
<path id="_235701416_1_" fill="none" stroke="#FF5A9A" stroke-width="1.9996" d="M329,96.3c-68,79-153.1,128.1-255.4,147.4"/>
<path id="_7576992_1_" fill="none" stroke="#FF5A9A" stroke-width="1.9996" d="M327.6,97.6c-56.7,45.8-113.5,45.8-170.3,0"/>
</svg>
