<?xml version="1.0" encoding="utf-8"?>
<!-- Generator: Adobe Illustrator 15.0.0, SVG Export Plug-In  -->
<!DOCTYPE svg PUBLIC "-//W3C//DTD SVG 1.1//EN" "http://www.w3.org/Graphics/SVG/1.1/DTD/svg11.dtd" [
	<!ENTITY ns_flows "http://ns.adobe.com/Flows/1.0/">
]>
<svg version="1.1"
	 xmlns="http://www.w3.org/2000/svg" xmlns:xlink="http://www.w3.org/1999/xlink" xmlns:a="http://ns.adobe.com/AdobeSVGViewerExtensions/3.0/"
	 x="0px" y="0px" width="200px" height="200px" viewBox="-0.5 -0.5 200 200" enable-background="new -0.5 -0.5 200 200"
	 xml:space="preserve">
<defs>
</defs>
<ellipse fill="none" stroke="#FF5A9A" stroke-width="4.9997" cx="99.5" cy="99.5" rx="97" ry="97"/>
<line id="_275022304_1_" fill="none" stroke="#FF5A9A" stroke-width="16.9997" x1="56.8" y1="77.4" x2="56.8" y2="138.1"/>
<path id="_275022376_1_" fill="none" stroke="#FF5A9A" stroke-width="16.9997" d="M35.1,53.5c10.8,0,21.7,8.1,21.7,24.4"/>
<line id="_461934896_1_" fill="none" stroke="#FF5A9A" stroke-width="16.9997" x1="99.7" y1="77.4" x2="99.7" y2="138.1"/>
<path id="_273792512_1_" fill="none" stroke="#FF5A9A" stroke-width="16.9997" d="M56.8,77.3c0-32,42.9-31.7,42.9,0.6"/>
<line id="_273880672_1_" fill="none" stroke="#FF5A9A" stroke-width="16.9997" x1="142.6" y1="77.4" x2="142.6" y2="138.1"/>
<path id="_272904616_1_" fill="none" stroke="#FF5A9A" stroke-width="16.9997" d="M99.7,77.3c0-32,42.9-31.7,42.9,0.6"/>
<path id="_461934920_1_" fill="none" stroke="#FF5A9A" stroke-width="16.9997" d="M142.7,137.5c0,16.1,10.9,24,21.6,23.8"/>
<path id="_275021416_1_" fill="none" stroke="#FF5A9A" stroke-width="16.9997" d="M142.8,141.6c8.1-117.6,103.2-35.1-36,12.7"/>
</svg>
