<?xml version="1.0" encoding="utf-8"?>
<!-- Generator: Adobe Illustrator 15.0.0, SVG Export Plug-In  -->
<!DOCTYPE svg PUBLIC "-//W3C//DTD SVG 1.1//EN" "http://www.w3.org/Graphics/SVG/1.1/DTD/svg11.dtd" [
	<!ENTITY ns_flows "http://ns.adobe.com/Flows/1.0/">
]>
<svg version="1.1"
	 xmlns="http://www.w3.org/2000/svg" xmlns:xlink="http://www.w3.org/1999/xlink" xmlns:a="http://ns.adobe.com/AdobeSVGViewerExtensions/3.0/"
	 x="0px" y="0px" width="200px" height="200px" viewBox="0 0 200 200" enable-background="new 0 0 200 200" xml:space="preserve">
<defs>
</defs>
<line id="_274859648_1_" fill="none" stroke="#FF5A9A" stroke-width="16.9997" x1="57.5" y1="76.9" x2="57.5" y2="136.4"/>
<path id="_274859672_1_" fill="none" stroke="#FF5A9A" stroke-width="16.9997" d="M36.3,53.4c10.6,0,21.3,8,21.3,24"/>
<line id="_272904496_1_" fill="none" stroke="#FF5A9A" stroke-width="16.9997" x1="99.6" y1="76.9" x2="99.6" y2="136.4"/>
<path id="_275024688_1_" fill="none" stroke="#FF5A9A" stroke-width="16.9997" d="M57.5,76.8c0-31.4,42.1-31.1,42.1,0.6"/>
<line id="_275023464_1_" fill="none" stroke="#FF5A9A" stroke-width="16.9997" x1="141.7" y1="76.9" x2="141.7" y2="136.4"/>
<path id="_461934848_1_" fill="none" stroke="#FF5A9A" stroke-width="16.9997" d="M99.6,76.8c0-31.4,42.1-31.1,42.1,0.6"/>
<path id="_461017960_1_" fill="none" stroke="#FF5A9A" stroke-width="16.9997" d="M141.7,135.8c0,15.8,10.7,23.6,21.2,23.4"/>
<line id="_275023560_1_" fill="none" stroke="#FF5A9A" stroke-width="16.9997" x1="161.9" y1="159" x2="191.7" y2="159"/>
<line id="_275024640_1_" fill="none" stroke="#FF5A9A" stroke-width="16.9997" x1="193.9" y1="153.3" x2="171.3" y2="178.7"/>
<line id="_275024544_1_" fill="none" stroke="#FF5A9A" stroke-width="16.9997" x1="193.9" y1="163.9" x2="171.3" y2="138.5"/>
<ellipse id="_272317936_1_" fill="none" stroke="#FF5A9A" stroke-width="4.9997" cx="100" cy="100" rx="97.5" ry="97.5"/>
</svg>
