<?xml version="1.0" encoding="utf-8"?>
<!-- Generator: Adobe Illustrator 15.0.0, SVG Export Plug-In  -->
<!DOCTYPE svg PUBLIC "-//W3C//DTD SVG 1.1//EN" "http://www.w3.org/Graphics/SVG/1.1/DTD/svg11.dtd" [
	<!ENTITY ns_flows "http://ns.adobe.com/Flows/1.0/">
]>
<svg version="1.1"
	 xmlns="http://www.w3.org/2000/svg" xmlns:xlink="http://www.w3.org/1999/xlink" xmlns:a="http://ns.adobe.com/AdobeSVGViewerExtensions/3.0/"
	 x="0px" y="0px" width="50px" height="50px" viewBox="-0.5 -0.5 50 50" enable-background="new -0.5 -0.5 50 50"
	 xml:space="preserve">
<defs>
</defs>
<line id="_274859648_1_" fill="none" stroke="#FEFEFE" stroke-width="1.0004" x1="14.1" y1="18.8" x2="14.1" y2="33.4"/>
<path id="_274859672_1_" fill="none" stroke="#FEFEFE" stroke-width="1.0004" d="M8.8,13c2.6,0,5.2,2,5.2,5.9"/>
<line id="_272904496_1_" fill="none" stroke="#FEFEFE" stroke-width="1.0004" x1="24.4" y1="18.8" x2="24.4" y2="33.4"/>
<path id="_275024688_1_" fill="none" stroke="#FEFEFE" stroke-width="1.0004" d="M14.1,18.8c0-7.7,10.4-7.7,10.4,0.1"/>
<line id="_275023464_1_" fill="none" stroke="#FEFEFE" stroke-width="1.0004" x1="34.8" y1="18.8" x2="34.8" y2="33.4"/>
<path id="_461934848_1_" fill="none" stroke="#FEFEFE" stroke-width="1.0004" d="M24.4,18.8c0-7.7,10.4-7.7,10.4,0.1"/>
<path id="_461017960_1_" fill="none" stroke="#FEFEFE" stroke-width="1.0004" d="M34.8,33.3c0,3.9,2.6,5.8,5.2,5.8"/>
<line id="_275023560_1_" fill="none" stroke="#FEFEFE" stroke-width="1.0004" x1="39.7" y1="39" x2="47.1" y2="39"/>
<line id="_275024640_1_" fill="none" stroke="#FEFEFE" stroke-width="1.0004" x1="47.6" y1="38.3" x2="42.1" y2="44.5"/>
<line id="_275024544_1_" fill="none" stroke="#FEFEFE" stroke-width="1.0004" x1="47.6" y1="39.8" x2="42.1" y2="33.5"/>
<circle id="_272317936_1_" fill="none" stroke="#FEFEFE" stroke-width="1.0004" cx="24.5" cy="24.5" r="24"/>
</svg>
