<?xml version="1.0" encoding="utf-8"?>
<!-- Generator: Adobe Illustrator 15.0.0, SVG Export Plug-In  -->
<!DOCTYPE svg PUBLIC "-//W3C//DTD SVG 1.1//EN" "http://www.w3.org/Graphics/SVG/1.1/DTD/svg11.dtd" [
	<!ENTITY ns_flows "http://ns.adobe.com/Flows/1.0/">
]>
<svg version="1.1"
	 xmlns="http://www.w3.org/2000/svg" xmlns:xlink="http://www.w3.org/1999/xlink" xmlns:a="http://ns.adobe.com/AdobeSVGViewerExtensions/3.0/"
	 x="0px" y="0px" width="50px" height="50px" viewBox="-0.5 -0.5 50 50" enable-background="new -0.5 -0.5 50 50"
	 xml:space="preserve">
<defs>
</defs>
<path id="_261198296_1_" fill="none" stroke="#FEFEFE" stroke-width="1.0004" d="M48.5,24.5c0-13.3-10.7-24-24-24s-24,10.7-24,24
	s10.7,24,24,24S48.5,37.8,48.5,24.5z"/>
<line id="_275021776_1_" fill="none" stroke="#FEFEFE" stroke-width="1.0004" x1="8.7" y1="34" x2="40.4" y2="34"/>
<path id="_274119568_1_" fill="none" stroke="#FEFEFE" stroke-width="1.0004" d="M8.6,29h13.2 M27.1,29h13.2 M21.8,28.8
	c-3.5-1.1-6.1-4.4-6.1-8.3c0-4.8,3.9-8.8,8.8-8.8c4.8,0,8.8,3.9,8.8,8.8c0,3.9-2.6,7.3-6.2,8.4"/>
</svg>
